<svg xmlns="http://www.w3.org/2000/svg" xmlns:xlink="http://www.w3.org/1999/xlink" width="200" height="200" class="icon" p-id="6596" t="1610435889927" version="1.1" viewBox="0 0 1024 1024"><defs><style type="text/css"/></defs><path fill="#7988AD" d="M189.046154 31.507692H669.538462l240.246153 240.246154v638.030769c0 43.323077-35.446154 82.707692-82.707692 82.707693H189.046154c-43.323077 0-82.707692-35.446154-82.707692-82.707693V114.215385C114.215385 66.953846 145.723077 31.507692 189.046154 31.507692z" p-id="6597"/><path fill="#FFF" fill-opacity=".5" d="M669.538462 31.507692l240.246153 240.246154h-157.538461C708.923077 271.753846 669.538462 236.307692 669.538462 189.046154v-157.538462z" p-id="6598"/><path fill="#FFF" d="M448.984615 488.369231h-43.323077c0-43.323077 11.815385-70.892308 39.384616-90.584616 19.692308-15.753846 43.323077-23.630769 70.892308-23.630769 63.015385 3.938462 98.461538 35.446154 102.4 94.523077 0 27.569231-11.815385 55.138462-43.323077 82.707692-31.507692 23.630769-47.261538 55.138462-43.323077 86.646154h-43.323077c0-23.630769 0-43.323077 7.876923-55.138461 3.938462-11.815385 15.753846-27.569231 39.384615-51.2l3.938462-3.938462c27.569231-23.630769 39.384615-43.323077 35.446154-63.015384-3.938462-35.446154-23.630769-55.138462-59.076923-59.076924-47.261538 3.938462-66.953846 31.507692-66.953847 82.707693z m86.646154 192.984615v51.2h-47.261538v-51.2h47.261538z" p-id="6599"/></svg>